<?xml version="1.0" encoding="UTF-8" standalone="no"?> <svg xmlns:inkscape="http://www.inkscape.org/namespaces/inkscape" xmlns:sodipodi="http://sodipodi.sourceforge.net/DTD/sodipodi-0.dtd" xmlns="http://www.w3.org/2000/svg" xmlns:svg="http://www.w3.org/2000/svg" width="185.4794mm" height="177.81615mm" viewBox="0 0 185.4794 177.81615" version="1.1" id="svg5" inkscape:version="1.1.1 (3bf5ae0d25, 2021-09-20)" sodipodi:docname="logo.svg"><defs id="defs2"></defs><g inkscape:label="Слой 1" inkscape:groupmode="layer" id="layer1" transform="translate(-8.497566,-61.601036)"><ellipse style="fill:#fae67f;fill-opacity:1;stroke-width:0.473361;stroke-linecap:round;stroke-linejoin:round;stroke-miterlimit:10" id="path1576" cx="104.83397" cy="150.50911" rx="79.142998" ry="78.908073"></ellipse><path style="fill:#000000;stroke-width:0.264583" d="m 131.89486,190.18993 -12.96459,0.0846 -6.61458,-0.36382 -6.61458,-0.36382 -12.303127,-0.56237 -12.303125,-0.56237 -15.081251,-0.23208 -15.08125,-0.23208 -1.40947,-0.24028 -1.409472,-0.24029 -0.410768,-0.41076 -0.410771,-0.41077 0.155479,-0.61948 0.15548,-0.61948 15.290803,0.0388 15.290803,0.0388 9.392708,0.29281 9.392709,0.29281 2.711979,0.13069 2.711983,0.13069 -0.006,-0.72509 -0.006,-0.72508 -0.27088,-1.17537 -0.27089,-1.17536 -0.7943,-1.80975 -0.79431,-1.80976 -0.953629,-1.64509 -0.95363,-1.64509 -2.181217,-2.91042 -2.18122,-2.91041 -1.401291,-1.5875 -1.401292,-1.5875 -3.586474,-3.54328 -3.586475,-3.54327 -3.175,-2.69305 -3.175,-2.69304 -2.645834,-1.99497 -2.645833,-1.99497 -1.5875,-1.11799 -1.5875,-1.11799 -4.173768,-2.7576 -4.173768,-2.7576 -3.234565,-1.94466 -3.234566,-1.94467 -4.7625,-2.6406 -4.7625,-2.64061 -3.439584,-1.73837 -3.439583,-1.73836 -3.571875,-1.63561 -3.571875,-1.6356 -1.322917,-0.61059 -1.322917,-0.61058 -2.778125,-1.18876 -2.778125,-1.18875 -2.062655,-0.85231 -2.062656,-0.8523 0.10573,-0.30099 0.105729,-0.30098 0.501718,0.0781 0.501718,0.0781 4.233333,1.19971 4.233333,1.19972 2.890379,0.92152 2.890378,0.92153 3.575265,1.3156 3.575264,1.31559 3.19165,1.33814 3.191648,1.33813 4.53766,2.20556 4.53766,2.20555 3.664423,2.03774 3.664424,2.03774 2.248958,1.33704 2.248959,1.33704 3.571875,2.37203 3.571875,2.37203 2.116667,1.59506 2.116666,1.59507 2.535293,2.17826 2.535296,2.17827 2.377493,2.33898 2.37749,2.33898 2.253356,2.51355 2.253356,2.51354 1.980978,2.51354 1.980978,2.51354 1.32516,1.98438 1.325162,1.98437 0.77251,1.38879 0.77251,1.3888 0.16142,2.6e-4 0.16142,2.7e-4 0.14613,-1.38906 0.14612,-1.38907 0.80936,-2.51354 0.80936,-2.51354 1.20951,-2.34791 1.20951,-2.3479 1.88918,-2.54689 1.88918,-2.54688 2.66357,-2.73876 2.66358,-2.73876 2.11666,-1.79433 2.11667,-1.79432 3.30729,-2.16213 3.30729,-2.16212 3.83646,-1.93915 3.83646,-1.93914 4.23333,-1.59399 4.23334,-1.594 2.51354,-0.67767 2.51354,-0.67766 2.24896,-0.38584 2.24896,-0.38585 2.77812,-0.28398 2.77813,-0.28399 1.12448,-0.14818 1.12447,-0.14818 v 0.40502 0.40502 l -3.50572,1.08501 -3.50573,1.08501 -1.98438,0.67744 -1.98437,0.67743 -2.51355,0.99631 -2.51354,0.99631 -2.77812,1.28556 -2.77813,1.28556 -3.13704,1.66819 -3.13704,1.66819 -0.30254,0.25252 -0.30254,0.25252 -2.77813,1.83395 -2.77812,1.83395 -2.11667,1.71263 -2.11667,1.71263 -3.18168,3.13031 -3.18168,3.13032 -1.06232,1.19062 -1.06232,1.19063 -1.59137,2.11667 -1.59136,2.11666 -0.80316,1.45521 -0.80316,1.45521 -0.69643,1.85208 -0.69643,1.85209 -0.69052,2.77812 -0.69052,2.77813 -0.14286,3.30729 -0.14286,3.30729 -0.26198,0.3276 -0.26199,0.3276 0.36053,0.11563 0.36053,0.11563 7.9375,0.2798 7.9375,0.2798 5.95312,0.15687 5.95313,0.15687 9.92187,-0.28311 9.92188,-0.28311 4.32109,-0.28855 4.32109,-0.28855 0.15478,0.15478 0.15477,0.15478 -0.13662,0.13662 -0.13662,0.13663 -2.22258,0.63947 -2.22258,0.63948 -2.91009,0.55693 -2.91009,0.55693 -3.5722,0.41405 -3.5722,0.41406 -12.96458,0.0846 z" id="path4660"></path></g></svg> 